<svg width="58" height="40" viewBox="0 0 58 40" fill="none" xmlns="http://www.w3.org/2000/svg">
<rect width="58" height="40" rx="12" transform="matrix(-1 0 0 1 58 0)" fill="#F1F2F4"/>
<path d="M15.8715 22.1443H10V6.00003H15.8715V22.1443Z" fill="#015EB7"/>
<path d="M28.5352 22.1443H22.6636V6.00003H28.5352V22.1443Z" fill="#015EB7"/>
<path d="M20.7354 22.1443H17.7996V6.00003H20.7354V22.1443Z" fill="#015EB7"/>
<path d="M36.3343 22.1443H30.4628V6.00003H36.3343V22.1443Z" fill="#FDD602"/>
<path d="M48.9979 22.1443H43.1264V6.00003H48.9979V22.1443Z" fill="#FDD602"/>
<path d="M41.1981 22.1443H38.2624V6.00003H41.1981V22.1443Z" fill="#FDD602"/>
<path d="M10.6862 27.4684C10.6972 27.6701 10.7525 27.8409 10.8512 27.9807C10.9505 28.1209 11.1031 28.2291 11.3103 28.3054C11.5174 28.3821 11.7895 28.4203 12.1265 28.4203C12.6174 28.4203 12.9655 28.3617 13.1707 28.2439C13.3759 28.1264 13.4785 27.9688 13.4785 27.7708C13.4785 27.6326 13.4454 27.5237 13.3798 27.4431C13.3135 27.3631 13.1902 27.2996 13.0084 27.2528C12.8272 27.2061 12.5681 27.1828 12.231 27.1828H11.4447V26.5948H12.231C12.5278 26.5948 12.7564 26.5734 12.9181 26.5304C13.0791 26.4876 13.1902 26.425 13.2506 26.3428C13.311 26.2609 13.3408 26.1542 13.3408 26.0236C13.3408 25.8223 13.2447 25.6617 13.0525 25.5422C12.8603 25.4228 12.5421 25.3629 12.0993 25.3629C11.7804 25.3629 11.5219 25.4004 11.3239 25.4748C11.1265 25.5495 10.9804 25.6568 10.8869 25.7969C10.7934 25.9368 10.7375 26.1095 10.7193 26.3148H10.0323C10.0583 25.8407 10.2394 25.4665 10.5765 25.1921C10.9135 24.9177 11.4233 24.7805 12.1044 24.7805C12.5408 24.7805 12.9012 24.8348 13.1869 24.9431C13.4733 25.0513 13.6831 25.1931 13.8168 25.3685C13.95 25.5439 14.0168 25.738 14.0168 25.9509C14.0168 26.2161 13.9337 26.424 13.7668 26.5754C13.6006 26.7264 13.3869 26.8264 13.1265 26.8748V26.886C13.42 26.9383 13.6655 27.04 13.8629 27.1913C14.061 27.3423 14.1603 27.5635 14.1603 27.8547C14.1603 28.0676 14.0915 28.2601 13.9538 28.4315C13.8168 28.6032 13.5967 28.7414 13.2941 28.8461C12.9921 28.9503 12.6012 29.0027 12.1207 29.0027C11.4103 29.0027 10.8843 28.8674 10.5434 28.5967C10.2031 28.3262 10.0252 27.9501 10.0102 27.4684H10.6862Z" fill="black"/>
<path d="M17.4959 26.6848C17.7894 26.6848 18.0037 26.6309 18.1388 26.5226C18.2745 26.4143 18.3427 26.2594 18.3427 26.0577C18.3427 25.8563 18.2745 25.7013 18.1388 25.5931C18.0037 25.4849 17.7894 25.4306 17.4959 25.4306H15.9628V26.6848H17.4959ZM17.5128 24.8481C17.8459 24.8481 18.1245 24.8978 18.3479 24.9966C18.5713 25.0956 18.7388 25.2354 18.8511 25.4168C18.9628 25.5977 19.0187 25.8112 19.0187 26.0577C19.0187 26.3005 18.9628 26.5114 18.8511 26.6904C18.7388 26.8697 18.5713 27.0106 18.3479 27.1132C18.1245 27.2162 17.8459 27.2672 17.5128 27.2672H15.9628V28.936H15.303V24.8481H17.5128Z" fill="black"/>
<path d="M21.8868 28.4035C22.3706 28.4035 22.7433 28.2775 23.0057 28.0254C23.2674 27.7738 23.3986 27.42 23.3986 26.9644V26.8189C23.3986 26.3595 23.2687 26.0052 23.0083 25.7548C22.7479 25.5047 22.3745 25.3797 21.8868 25.3797C21.3927 25.3797 21.0141 25.5057 20.7524 25.7578C20.4901 26.0098 20.3595 26.3635 20.3595 26.8189V26.9644C20.3595 27.42 20.4901 27.7738 20.7524 28.0254C21.0141 28.2775 21.3927 28.4035 21.8868 28.4035ZM21.8764 29.0027C21.418 29.0027 21.0245 28.9188 20.6946 28.7506C20.3647 28.5828 20.1135 28.3476 19.9414 28.0452C19.7693 27.7428 19.6829 27.3865 19.6829 26.9755V26.8077C19.6829 26.3971 19.7693 26.0404 19.9414 25.738C20.1135 25.4356 20.3647 25.2004 20.6946 25.0326C21.0245 24.8644 21.418 24.7805 21.8764 24.7805C22.3414 24.7805 22.7388 24.8644 23.0687 25.0326C23.3986 25.2004 23.6492 25.4356 23.8219 25.738C23.994 26.0404 24.0797 26.3971 24.0797 26.8077V26.9755C24.0797 27.3865 23.994 27.7428 23.8219 28.0452C23.6492 28.3476 23.3986 28.5828 23.0687 28.7506C22.7388 28.9188 22.3414 29.0027 21.8764 29.0027Z" fill="black"/>
<path d="M27.3336 28.3592C27.6343 28.3592 27.8512 28.306 27.985 28.1997C28.1187 28.0934 28.1856 27.943 28.1856 27.7489C28.1856 27.5548 28.1187 27.4054 27.985 27.3007C27.8512 27.1964 27.6343 27.1441 27.3336 27.1441H25.7836V28.3592H27.3336ZM27.3506 26.5785C27.8486 26.5785 28.2233 26.6848 28.4739 26.8977C28.7252 27.1106 28.8505 27.3962 28.8505 27.7545C28.8505 28.1167 28.7252 28.404 28.4739 28.6169C28.2233 28.8298 27.8486 28.936 27.3506 28.936H25.1297V24.8481H28.5376V25.4305H25.7836V26.5785H27.3506Z" fill="black"/>
<path d="M30.4516 24.8476H33.9192V28.9354H33.2543V25.4412H31.0893L31.012 27.2162C31.001 27.6496 30.9471 27.9957 30.8496 28.255C30.7529 28.5146 30.6224 28.7002 30.4594 28.8124C30.2964 28.9243 30.0977 28.9802 29.8633 28.9802C29.7977 28.9802 29.7354 28.9756 29.6763 28.9664C29.6178 28.9568 29.5685 28.9466 29.5282 28.9354V28.3307C29.5354 28.3307 29.5438 28.3317 29.5529 28.3333C29.562 28.3353 29.5704 28.3363 29.5776 28.3363C29.6581 28.3399 29.7224 28.3418 29.7698 28.3418C29.8983 28.3418 30.0029 28.3103 30.0834 28.2468C30.1639 28.1833 30.2282 28.0648 30.2757 27.8911C30.323 27.7173 30.3523 27.4719 30.3633 27.1547L30.4516 24.8476Z" fill="black"/>
<path d="M35.1604 28.936V24.8481H38.4748V25.4305H35.8202V26.5785H38.2436V27.1497H35.8202V28.3481H38.5793V28.936H35.1604Z" fill="black"/>
<path d="M42.8816 24.8481H43.5518V28.936H42.8816V27.1889H40.2323V28.936H39.5673V24.8481H40.2323V26.5953H42.8816V24.8481Z" fill="black"/>
<path d="M46.8043 28.4035C47.288 28.4035 47.6608 28.2775 47.9232 28.0254C48.1848 27.7738 48.316 27.42 48.316 26.9644V26.8189C48.316 26.3595 48.1861 26.0052 47.9257 25.7548C47.6654 25.5047 47.292 25.3797 46.8043 25.3797C46.3101 25.3797 45.9316 25.5057 45.6698 25.7578C45.4075 26.0098 45.277 26.3635 45.277 26.8189V26.9644C45.277 27.42 45.4075 27.7738 45.6698 28.0254C45.9316 28.2775 46.3101 28.4035 46.8043 28.4035ZM46.7939 29.0027C46.3354 29.0027 45.9419 28.9188 45.612 28.7506C45.2821 28.5828 45.0309 28.3476 44.8588 28.0452C44.6867 27.7428 44.6004 27.3865 44.6004 26.9755V26.8077C44.6004 26.3971 44.6867 26.0404 44.8588 25.738C45.0309 25.4356 45.2821 25.2004 45.612 25.0326C45.9419 24.8644 46.3354 24.7805 46.7939 24.7805C47.2589 24.7805 47.6562 24.8644 47.9861 25.0326C48.316 25.2004 48.5667 25.4356 48.7394 25.738C48.9115 26.0404 48.9972 26.3971 48.9972 26.8077V26.9755C48.9972 27.3865 48.9115 27.7428 48.7394 28.0452C48.5667 28.3476 48.316 28.5828 47.9861 28.7506C47.6562 28.9188 47.2589 29.0027 46.7939 29.0027Z" fill="black"/>
<path d="M14.963 34.3617C15.2929 34.3617 15.5273 34.3103 15.6662 34.2076C15.8058 34.105 15.8754 33.955 15.8754 33.7569C15.8754 33.5703 15.8058 33.4236 15.6662 33.3173C15.5273 33.211 15.3071 33.1577 15.0071 33.1577H13.4019V34.3617H14.963ZM14.963 31.4162H13.4019V32.6201H15.0071C15.2598 32.6201 15.4487 32.5671 15.5734 32.4605C15.6974 32.3542 15.7598 32.2078 15.7598 32.0209C15.7598 31.8268 15.6968 31.6774 15.5701 31.5731C15.4442 31.4685 15.2415 31.4162 14.963 31.4162ZM15.5837 32.8889C15.837 32.9376 16.0598 33.0429 16.252 33.2054C16.4442 33.3677 16.5403 33.5851 16.5403 33.8576C16.5403 34.0593 16.4857 34.2422 16.3754 34.4064C16.2656 34.5709 16.0942 34.6996 15.8617 34.793C15.6286 34.8862 15.337 34.9329 14.9851 34.9329H12.748V30.845H14.9851C15.2961 30.845 15.561 30.8917 15.7792 30.9851C15.9974 31.0783 16.1591 31.2062 16.2656 31.3685C16.3721 31.531 16.4247 31.7149 16.4247 31.9202C16.4247 32.0956 16.3838 32.2506 16.3013 32.3848C16.2189 32.5194 16.1136 32.6276 15.9851 32.7099C15.8571 32.7918 15.7234 32.8478 15.5837 32.8777V32.8889Z" fill="black"/>
<path d="M22.6413 30.845H23.3887L21.6796 33.9083C21.5329 34.1768 21.3945 34.388 21.2646 34.541C21.1348 34.694 20.988 34.8088 20.8251 34.8852C20.662 34.9619 20.4614 35 20.2231 35C20.0542 35 19.8893 34.9777 19.7283 34.9329V34.3449C19.8861 34.3673 20.023 34.3785 20.1406 34.3785C20.2653 34.3785 20.3685 34.3627 20.451 34.3308C20.5335 34.2992 20.6069 34.2489 20.6711 34.1798C20.7348 34.1107 20.8036 34.0109 20.877 33.88L19.1568 30.845H19.9426L21.2945 33.3259L22.6413 30.845Z" fill="black"/>
<path d="M27.4613 34.9329L25.8561 32.8777L24.9275 33.7345V34.9329H24.2677V30.845H24.9275V32.9616L27.2301 30.845H28.1593L26.3781 32.4747L28.3022 34.9329H27.4613Z" fill="black"/>
<path d="M31.4003 32.6816C31.6938 32.6816 31.9081 32.6277 32.0432 32.5195C32.1789 32.4112 32.2471 32.2562 32.2471 32.0545C32.2471 31.8531 32.1789 31.6982 32.0432 31.5899C31.9081 31.4817 31.6938 31.4273 31.4003 31.4273H29.8672V32.6816H31.4003ZM31.4172 30.845C31.7503 30.845 32.0289 30.8947 32.2523 30.9934C32.4757 31.0924 32.6432 31.2323 32.7555 31.4135C32.8672 31.5945 32.923 31.8081 32.923 32.0545C32.923 32.2973 32.8672 32.5082 32.7555 32.6872C32.6432 32.8666 32.4757 33.0074 32.2523 33.1101C32.0289 33.2131 31.7503 33.264 31.4172 33.264H29.8672V34.9329H29.2074V30.845H31.4172Z" fill="black"/>
<path d="M35.2547 31.5843L34.5072 33.3482H36.0131L35.2547 31.5843ZM37.4151 34.9329H36.7001L36.2495 33.9082H34.2709L33.826 34.9329H33.1169L34.9306 30.845H35.5794L37.4151 34.9329Z" fill="black"/>
<path d="M39.6654 30.2879C39.5901 30.3606 39.4927 30.3971 39.3712 30.3971C39.2433 30.3971 39.1427 30.3606 39.0693 30.2879C38.9959 30.2152 38.9596 30.1192 38.9596 29.9994C38.9596 29.8839 38.9959 29.7904 39.0693 29.7194C39.1427 29.6486 39.2433 29.6131 39.3712 29.6131C39.4959 29.6131 39.5953 29.6486 39.668 29.7194C39.7413 29.7904 39.7784 29.8839 39.7784 29.9994C39.7784 30.1192 39.7407 30.2152 39.6654 30.2879ZM39.0913 30.845H38.4264V34.9329H39.0913V30.845ZM38.4537 30.2879C38.3803 30.3606 38.2816 30.3971 38.1569 30.3971C38.0322 30.3971 37.9336 30.3606 37.8602 30.2879C37.7868 30.2152 37.7504 30.1192 37.7504 29.9994C37.7504 29.8839 37.7868 29.7904 37.8602 29.7194C37.9336 29.6486 38.0322 29.6131 38.1569 29.6131C38.2816 29.6131 38.3803 29.6486 38.4537 29.7194C38.5271 29.7904 38.5634 29.8839 38.5634 29.9994C38.5634 30.1192 38.5271 30.2152 38.4537 30.2879Z" fill="black"/>
<path d="M43.6698 30.845H44.3399V34.9329H43.6698V33.1857H41.0204V34.9329H40.3554V30.845H41.0204V32.5921H43.6698V30.845Z" fill="black"/>
<path d="M46.2441 34.9329H45.5792V30.845H46.2441V34.9329Z" fill="black"/>
</svg>
