<svg width="24" height="12" viewBox="0 0 24 12" fill="none" xmlns="http://www.w3.org/2000/svg">
<path d="M6.00606 0C6.20487 5.2258e-05 6.39916 0.0593114 6.56407 0.170201C6.72899 0.281091 6.85703 0.438572 6.93185 0.622512C7.00666 0.806452 7.02484 1.00849 6.98406 1.2028C6.94328 1.39711 6.84539 1.57487 6.70292 1.71333L3.41187 4.99966H22.9864C23.1188 4.99779 23.2503 5.02222 23.3732 5.07153C23.4961 5.12085 23.6079 5.19406 23.7022 5.28692C23.7965 5.37977 23.8714 5.49042 23.9226 5.61243C23.9737 5.73444 24 5.86538 24 5.99764C24 6.1299 23.9737 6.26084 23.9226 6.38285C23.8714 6.50486 23.7965 6.61551 23.7022 6.70836C23.6079 6.80122 23.4961 6.87443 23.3732 6.92375C23.2503 6.97306 23.1188 6.99749 22.9864 6.99562H3.41187L6.70292 10.2819C6.79883 10.3739 6.87541 10.4841 6.92817 10.6059C6.98092 10.7278 7.00879 10.859 7.01015 10.9918C7.0115 11.1245 6.98631 11.2562 6.93605 11.3792C6.88579 11.5021 6.81147 11.6138 6.71745 11.7077C6.62342 11.8016 6.51158 11.8758 6.38848 11.926C6.26537 11.9761 6.13347 12.0013 6.00051 11.9999C5.86755 11.9986 5.73619 11.9708 5.61413 11.9181C5.49207 11.8654 5.38177 11.7889 5.28968 11.6932L0.292606 6.70325C0.105249 6.51608 0 6.26228 0 5.99764C0 5.733 0.105249 5.4792 0.292606 5.29204L5.28968 0.302124C5.38282 0.206522 5.49419 0.130531 5.61724 0.0786393C5.74028 0.0267475 5.87249 7.74813e-06 6.00606 0Z" fill="#182A42"/>
</svg>
