<svg width="9" height="16" viewBox="0 0 9 16" fill="none" xmlns="http://www.w3.org/2000/svg">
<path d="M5.13574 15.2485V2.56095C5.13575 2.56034 5.13594 2.55975 5.13628 2.55924C5.13663 2.55873 5.13711 2.55834 5.13768 2.55811C5.13824 2.55787 5.13887 2.55781 5.13947 2.55793C5.14007 2.55805 5.14062 2.55834 5.14106 2.55877L7.49387 4.91158C7.63452 5.05227 7.82529 5.13132 8.02423 5.13135C8.22316 5.13138 8.41396 5.05238 8.55465 4.91174C8.69534 4.77109 8.77439 4.58031 8.77442 4.38138C8.77445 4.18244 8.69545 3.99164 8.55481 3.85095L4.92981 0.225953C4.85824 0.154321 4.77325 0.0974963 4.67971 0.0587259C4.58617 0.0199555 4.48591 0 4.38465 0C4.28339 0 4.18313 0.0199555 4.08959 0.0587259C3.99605 0.0974963 3.91106 0.154321 3.83949 0.225953L0.218869 3.8472C0.0850401 3.98101 0.00674031 4.16045 -0.000330356 4.34956C-0.00740102 4.53868 0.0572802 4.72347 0.180744 4.86689C0.470744 5.20283 0.980744 5.20658 1.29449 4.89314L3.63043 2.55783C3.63087 2.5574 3.63142 2.55711 3.63202 2.55699C3.63262 2.55688 3.63324 2.55694 3.63381 2.55717C3.63437 2.5574 3.63486 2.5578 3.6352 2.5583C3.63555 2.55881 3.63574 2.5594 3.63574 2.56002V15.2485C3.63574 15.4474 3.71476 15.6381 3.85541 15.7788C3.99607 15.9194 4.18683 15.9985 4.38574 15.9985C4.58466 15.9985 4.77542 15.9194 4.91607 15.7788C5.05673 15.6381 5.13574 15.4474 5.13574 15.2485Z" fill="black"/>
</svg>
