<svg width="9" height="16" viewBox="0 0 9 16" fill="none" xmlns="http://www.w3.org/2000/svg">
<path d="M4.93049 15.7737L8.55549 12.1487C8.69614 12.0079 8.77506 11.8169 8.77488 11.6178C8.77471 11.4187 8.69545 11.2278 8.55456 11.0872C8.41366 10.9465 8.22266 10.8676 8.02358 10.8678C7.8245 10.868 7.63364 10.9472 7.49299 11.0881L5.14112 13.4406C5.14068 13.4411 5.14013 13.4413 5.13953 13.4415C5.13893 13.4416 5.13831 13.4415 5.13774 13.4413C5.13718 13.441 5.13669 13.4407 5.13635 13.4401C5.136 13.4396 5.13581 13.439 5.13581 13.4384V0.75C5.13581 0.551088 5.05679 0.360322 4.91614 0.21967C4.77548 0.0790176 4.58472 0 4.38581 0C4.18689 0 3.99613 0.0790176 3.85548 0.21967C3.71482 0.360322 3.63581 0.551088 3.63581 0.75V13.4375C3.6358 13.4381 3.63561 13.4387 3.63527 13.4392C3.63492 13.4397 3.63444 13.4401 3.63387 13.4403C3.63331 13.4406 3.63268 13.4406 3.63208 13.4405C3.63148 13.4404 3.63093 13.4401 3.63049 13.4397L1.29518 11.1044C0.982681 10.7919 0.471743 10.7947 0.181743 11.1306C0.0582387 11.274 -0.0064971 11.4588 0.000515589 11.6479C0.00752827 11.837 0.0857712 12.0165 0.219556 12.1503L3.84049 15.7737C3.91206 15.8453 3.99702 15.9021 4.09053 15.9409C4.18404 15.9796 4.28427 15.9995 4.38549 15.9995C4.48671 15.9995 4.58694 15.9796 4.68045 15.9409C4.77397 15.9021 4.85893 15.8453 4.93049 15.7737Z" fill="#43A0FD"/>
</svg>
